<svg width="150" height="150" viewBox="0 0 150 150" fill="none" xmlns="http://www.w3.org/2000/svg">
<path d="M34.314 13.6443C51.7873 2.28064 65.9028 -1.19214 78.6128 0.342529C91.3227 1.87725 119.257 9.66726 127.657 16.4939C136.056 23.3206 146.629 38.995 148.751 57.823C150.874 76.6507 149.886 86.4281 148.751 98.6765C147.617 110.925 143.798 120.511 137.149 121.953C130.5 123.395 129.449 111.11 122.383 115.778C115.317 120.446 117.005 128.933 112.891 134.304C108.777 139.676 115.939 142.26 112.891 144.756C109.843 147.251 106.407 144.152 102.343 144.756C98.2795 145.36 94.9527 149.634 91.7964 148.081C88.64 146.528 90.5669 142.842 88.105 140.48C85.6428 138.119 70.9151 137.738 68.0649 140.48C65.2155 143.222 68 147.652 64.3735 149.506C60.7469 151.359 54.3543 147.606 52.2446 144.756C50.1352 141.905 48.6524 121.381 43.8071 121.003C38.9617 120.625 28.5587 125.573 20.603 123.853C15.5562 117.103 7.31282 116.415 3.20068 97.2507C-0.911429 78.0865 -2.05412 55.5362 5.8374 40.2458C13.7287 24.956 16.8412 25.0075 34.314 13.6443ZM86.5229 102.002C83.4969 96.6076 82.3022 96.7587 80.7222 100.576L79.6675 107.702L78.0854 100.576C76.1508 96.679 74.7203 97.3648 71.7573 102.002C69.0733 107.56 68.6093 110.215 68.0659 114.828C68.6638 118.721 69.9853 119.636 74.9214 120.053C77.8391 119.197 79.2323 118.468 79.6675 115.302C81.8342 118.05 82.6219 118.977 85.9956 120.053C89.4084 120.363 90.5203 119.704 90.7417 114.828C89.5947 109.636 88.8977 106.745 86.5229 102.002ZM97.3804 35.9705C78.9137 34.4026 68.6374 34.407 50.4448 35.9705C41.5682 37.9927 39.415 40.3996 41.48 47.3718C44.5926 59.2651 46.5896 65.742 52.0278 75.8738C43.6886 76.1962 40.3222 76.968 36.2065 79.2C32.3257 83.5636 31.7075 85.5913 32.5151 88.7C32.8361 89.5072 34.3603 91.8911 34.6245 92.9753C34.7653 93.5537 34.7807 96.9229 34.6245 99.1511C35.2119 102.071 41.6446 102.45 44.1167 102.952C45.8444 103.302 52.2626 101.002 55.1919 97.7263C61.8684 90.3807 62.8539 85.6441 58.8833 75.8738C56.5407 65.9515 54.9941 61.0977 52.0278 53.072C70.9574 48.4982 81.7641 48.7803 101.072 49.7468C104.398 60.4121 105.862 66.2791 112.146 77.7742C108.645 76.3962 103.557 76.6337 102.654 76.824C97.9786 77.8088 95.2014 85.3914 98.6528 89.6501C103.09 95.051 106.246 98.7474 113.418 101.052C121.586 102.089 123.618 102.63 125.331 99.6267C125.754 97.2928 126.732 95.5707 123.965 91.5505C123.947 89.5544 124.188 88.4539 125.331 86.8005C125.713 81.9301 124.388 80.6424 121.112 79.2C116.709 64.7169 114.204 56.5779 108.982 41.6716C107.875 37.5544 105.886 36.0037 97.3804 35.9705Z" fill="#E4D7BF"/>
</svg>
