<svg width="150" height="150" viewBox="0 0 150 150" fill="none" xmlns="http://www.w3.org/2000/svg">
<path d="M34.3139 13.6448C51.7873 2.28112 65.9028 -1.19166 78.6127 0.343013C91.3227 1.87773 119.257 9.66774 127.657 16.4944C136.056 23.3211 146.629 38.9955 148.751 57.8235C150.874 76.6512 149.886 86.4286 148.751 98.677C147.617 110.925 143.798 120.511 137.149 121.953C130.5 123.395 129.449 111.111 122.383 115.779C115.317 120.446 117.005 128.934 112.891 134.305C108.777 139.676 115.939 142.26 112.891 144.756C109.843 147.252 106.407 144.152 102.343 144.756C98.2794 145.36 94.9527 149.634 91.7963 148.081C88.64 146.528 90.5668 142.842 88.1049 140.481C85.6427 138.119 70.915 137.739 68.0649 140.481C65.2155 143.223 68 147.652 64.3735 149.506C60.7469 151.36 54.3542 147.606 52.2446 144.756C50.1352 141.906 48.6523 121.381 43.8071 121.003C38.9616 120.626 28.5586 125.574 20.603 123.854C15.5562 117.103 7.31276 116.415 3.20063 97.2512C-0.911487 78.087 -2.05418 55.5367 5.83734 40.2463C13.7287 24.9565 16.8411 25.008 34.3139 13.6448ZM86.5229 102.002C83.4968 96.6081 82.3022 96.7592 80.7221 100.576L79.6674 107.702L78.0854 100.576C76.1508 96.6795 74.7202 97.3653 71.7573 102.002C69.0732 107.56 68.6092 110.216 68.0659 114.828C68.6637 118.721 69.9852 119.637 74.9213 120.054C77.8391 119.198 79.2322 118.469 79.6674 115.303C81.8342 118.051 82.6218 118.977 85.9955 120.054C89.4083 120.363 90.5202 119.705 90.7416 114.828C89.5946 109.636 88.8977 106.746 86.5229 102.002ZM97.3803 35.9709C78.9136 34.4031 68.6374 34.4075 50.4448 35.9709C41.5682 37.9932 39.415 40.4001 41.4799 47.3723C44.5925 59.2656 46.5895 65.7425 52.0278 75.8743C43.6885 76.1967 40.3221 76.9685 36.2065 79.2004C32.3256 83.5641 31.7075 85.5918 32.5151 88.7004C32.8361 89.5076 34.3602 91.8916 34.6245 92.9758C34.7653 93.5542 34.7807 96.9234 34.6245 99.1516C35.2119 102.072 41.6445 102.451 44.1166 102.952C45.8444 103.303 52.2626 101.003 55.1918 97.7268C61.8683 90.3812 62.8539 85.6445 58.8832 75.8743C56.5406 65.952 54.994 61.0982 52.0278 53.0725C70.9574 48.4986 81.764 48.7807 101.072 49.7473C104.398 60.4125 105.862 66.2796 112.146 77.7747C108.644 76.3967 103.557 76.6341 102.654 76.8245C97.9785 77.8093 95.2014 85.3919 98.6528 89.6506C103.09 95.0515 106.246 98.7479 113.418 101.052C121.586 102.09 123.618 102.63 125.331 99.6272C125.754 97.2933 126.732 95.5712 123.965 91.551C123.947 89.5549 124.188 88.4544 125.331 86.801C125.713 81.9306 124.387 80.6429 121.112 79.2004C116.709 64.7174 114.204 56.5784 108.982 41.6721C107.875 37.5549 105.886 36.0042 97.3803 35.9709Z" fill="#1D1B19"/>
</svg>
